PathFileType	4	(X/Y/Z)	C:/Users/beibeiliu/ov580/test_trc/User3\sequence.51_training_dense_left.trc
DataRate	CameraRate	NumFrames	NumMarkers	Units	OrigDataRate	OrigDataStartFrame	OrigNumFrames
120	120	22	19	mm	120	51	100
Frame#	Time	ThumbCMC			ThumbMCP			ThumbIP			ThumbTip			IndexMCP			IndexPIP			IndexTip			MiddleMCP			MiddlePIP			MiddleTip			RingMCP			RingPIP			RingTip			PinkyMCP			PinkyPIP			PinkyTip			BackHand1			BackHand2			BackHand3	
		X0	Y0	Z0	X1	Y1	Z1	X2	Y2	Z2	X3	Y3	Z3	X4	Y4	Z4	X5	Y5	Z5	X6	Y6	Z6	X7	Y7	Z7	X8	Y8	Z8	X9	Y9	Z9	X10	Y10	Z10	X11	Y11	Z11	X12	Y12	Z12	X13	Y13	Z13	X14	Y14	Z14	X15	Y15	Z15	X16	Y16	Z16	X17	Y17	Z17	X18	Y18	Z18	
50	0.416667	-50.0959	-20.8862	85.2457	-32.886	-27.862	59.8834	-17.616	-34.4312	37.5306	-3.79133	-41.0077	19.3303	-54.7468	13.6722	15.7743	-48.4175	20.0976	-12.5491	-38.6332	21.6132	-33.0044	-83.1922	17.0329	5.10223	-80.3561	15.6683	-24.3188	-79.7245	8.49969	-53.8385	-106.493	4.72637	10.1106	-111.674	-9.5803	-17.8265	-111.181	-33.2144	-36.8436	-126.613	-10.6633	18.8312	-129.319	-27.8181	3.87763	-122.248	-49.3871	-6.75395	-107.126	14.694	66.5599	-109.403	9.16561	93.5424	-75.8457	10.5398	79.4475	
51	0.425	-52.1188	-22.0152	85.7172	-33.619	-31.3195	61.8788	-22.8524	-37.1731	36.0088	-11.6104	-43.5532	12.2436	-57.5932	16.2127	14.9949	-47.8986	20.3369	-10.4022	-41.2606	22.2015	-36.6338	-83.7277	14.1569	5.30857	-78.4862	9.06564	-22.4681	-81.5376	-12.6148	-55.8078	-104.541	0.648259	8.75045	-106.33	-19.3219	-15.516	-108.639	-48.0294	-20.9854	-128.259	-12.948	20.9445	-121.899	-37.1782	5.42026	-110.006	-59.0997	8.48748	-107.686	13.4829	64.5812	-113.576	6.52513	94.1977	-75.7013	10.9275	79.7916	
52	0.433333	-56.1422	-18.2919	84.6211	-38.0373	-28.2554	63.8597	-21.7618	-33.6057	31.125	-22.4773	-41.4142	9.36752	-60.4089	19.6337	18.7057	-49.8344	23.424	-8.9103	-43.8724	14.9747	-36.7507	-85.1626	17.6131	3.40328	-78.4203	8.13736	-22.8097	-76.2626	-25.1503	-42.3777	-107.689	0.981209	11.6467	-102.891	-21.7815	-11.0302	-100.974	-54.0801	-3.29381	-124.807	-14.1288	20.3082	-115.629	-40.0446	10.6937	-104.31	-63.0977	26.447	-108.497	13.2428	64.3226	-116.026	7.51386	97.6709	-77.0549	12.5474	80.1172	
53	0.441667	-53.0023	-18.6785	88.0623	-33.8408	-25.6043	59.1801	-23.6411	-32.6778	30.1966	-33.5507	-39.3914	9.23337	-59.9183	22.9311	21.6395	-49.3329	24.8234	-9.82165	-44.1303	9.45066	-31.6566	-81.8638	24.5125	8.02057	-80.7785	13.1739	-23.3509	-79.6388	-22.9137	-32.093	-100.658	4.52197	10.4162	-101.771	-19.6726	-7.5298	-93.9533	-47.0649	7.06666	-118.256	-12.9288	21.0253	-107.815	-39.8269	16.574	-98.1822	-55.109	39.0286	-111.529	15.1719	69.6637	-113.607	7.49808	96.7577	-75.4802	13.4938	82.0036	
54	0.45	-52.7492	-15.3212	82.6005	-37.1288	-23.9921	58.7461	-28.9947	-30.1103	27.4698	-44.2412	-36.9253	7.70358	-66.3494	27.6349	22.1934	-58.3605	29.9851	-12.7396	-53.8589	10.0582	-30.2787	-92.6608	27.7721	12.2713	-86.6199	17.0352	-20.7854	-80.4846	-20.7592	-23.0887	-107.706	3.01257	11.9714	-103.437	-24.6022	-4.10544	-91.8928	-42.9948	17.9948	-117.536	-18.9204	20.4705	-105.688	-43.057	22.3514	-95.6701	-49.202	48.7806	-113.576	14.0396	67.7569	-117.028	1.91502	97.3891	-78.5918	11.4764	83.1323	
55	0.458333	-56.941	-14.4352	81.7161	-38.7834	-20.3327	52.6474	-37.7245	-25.6974	24.4263	-51.3269	-33.9335	0.967629	-77.0448	30.0904	26.5019	-73.9337	38.1527	-7.28931	-67.3428	18.7613	-29.9689	-97.0878	27.4011	12.6536	-91.8991	15.6518	-20.2994	-85.5352	-20.1999	-15.5517	-108.54	1.68366	14.2126	-101.893	-29.8905	-0.792841	-91.1247	-42.974	24.7355	-121.613	-20.9198	21.4593	-105.859	-42.5987	20.8026	-96.2267	-51.271	52.4588	-114.505	9.97621	69.1717	-115.582	0.538751	96.695	-84.1489	12.5589	86.6856	
56	0.466667	-56.6958	-11.0856	78.5905	-40.2101	-16.0369	50.4342	-37.044	-20.0609	19.9382	-50.5149	-28.8704	-1.22073	-82.9816	33.7945	25.3876	-82.5896	43.2698	-4.96361	-77.6613	30.6232	-30.4809	-102.36	22.2028	7.5965	-96.5834	1.59387	-18.9646	-86.8694	-31.5828	-1.65772	-113.545	-2.3091	15.0067	-104.466	-32.7962	1.73621	-89.8368	-44.2791	28.4165	-126.181	-16.895	24.5548	-112.734	-39.7408	14.3253	-99.037	-54.6566	40.573	-122.342	9.18285	66.8986	-120.535	-2.60575	100.586	-85.2558	12.1834	81.8891	
57	0.475	-60.0746	-14.6851	79.8239	-45.8778	-16.7965	51.2342	-44.1141	-18.9498	18.5108	-51.57	-25.2814	-2.05429	-87.2607	30.1973	18.0853	-91.777	35.1804	-10.7375	-87.7231	21.6757	-37.0605	-106.189	11.7441	4.76546	-100.161	-10.7332	-16.4671	-88.3018	-43.2426	9.13413	-117.891	-5.03334	10.5878	-109.858	-32.4842	-1.62307	-97.3535	-49.3707	20.8515	-136.01	-13.5783	24.6791	-127.425	-36.5333	6.48486	-110.536	-56.4718	19.1199	-122.962	5.76711	69.8807	-116.579	-1.22837	99.0001	-88.1453	10.5073	83.0496	
58	0.483333	-56.6364	-16.9281	78.8234	-47.0072	-19.652	49.7734	-39.8977	-21.0334	21.9144	-43.9581	-24.2857	-4.66728	-85.2451	21.763	13.933	-88.7374	19.7386	-17.1752	-86.8902	-6.04782	-39.9839	-105.09	4.65309	5.74008	-98.8617	-26.7568	-12.049	-89.2106	-52.9938	14.7182	-121.563	-0.792677	13.2838	-118.367	-28.9403	-4.63147	-105.803	-51.0683	10.9263	-141.858	-5.11914	26.9517	-141.486	-18.2121	2.95994	-127.22	-46.3849	-1.04695	-116.975	10.9263	66.6282	-116.97	0.288602	98.8539	-86.6833	10.8912	79.4983	
59	0.491667	-54.0752	-20.8117	79.7278	-43.1376	-23.742	50.8803	-35.4233	-25.5108	22.9582	-37.6328	-28.4865	-2.50973	-75.6642	10.7334	2.99807	-75.1642	-7.35628	-23.3237	-78.4188	-34.1617	-25.9371	-100.225	-0.146744	0.964155	-96.2326	-28.4624	-12.7332	-93.4317	-56.163	15.3893	-118.125	3.09652	8.42784	-117.057	-22.1779	-10.8188	-109.741	-51.9579	3.5208	-136.985	1.17958	29.3561	-144.443	-7.30659	-0.184695	-138.909	-28.0332	-11.2464	-115.722	11.9651	69.2345	-114.317	5.68757	96.4906	-77.2705	10.1553	77.4646	
60	0.5	-49.7455	-21.8197	80.4798	-37.5156	-25.7532	53.4996	-27.6295	-29.0221	21.0386	-31.7837	-32.7365	0.35247	-69.9649	0.773883	6.51863	-72.5599	-24.4235	-16.4122	-75.2979	-56.7982	-1.98233	-89.5002	-0.238385	-0.0727293	-92.834	-28.8177	-13.3677	-87.0152	-57.5856	18.4423	-111.824	6.86891	8.60864	-116.715	-16.154	-13.2109	-108.508	-44.7419	-3.89574	-129.919	4.73571	27.8121	-141.533	0.196251	2.53134	-140.991	-21.3937	-14.9971	-106.277	13.6212	62.9515	-106.17	5.99664	96.0266	-76.991	7.55403	76.0974	
61	0.508333	-44.2351	-22.9422	78.7745	-29.2078	-29.5343	53.1262	-22.5622	-35.0919	23.9896	-30.5915	-39.6879	-2.52667	-67.6112	-2.93889	6.00951	-69.5217	-33.7519	-10.8605	-66.4623	-57.1016	13.3533	-85.5007	-1.01034	-1.64029	-89.141	-31.7401	-11.8548	-84.8513	-51.697	21.6738	-109.037	7.43143	10.1886	-110.041	-14.503	-13.1277	-105.003	-43.1081	5.3585	-128.618	6.72276	27.1173	-133.996	-1.23878	0.297924	-126.582	-26.8741	-7.76989	-103.181	12.7378	62.339	-102.087	5.86624	92.1633	-66.2974	7.89942	77.7411	
62	0.516667	-41.6247	-23.8707	78.7019	-27.784	-30.411	47.9329	-26.6613	-37.1363	22.4503	-42.8068	-40.4979	-2.3782	-63.0406	-2.61932	3.43815	-63.8687	-32.1405	-8.4535	-64.9938	-46.9471	24.5089	-82.1989	1.35387	0.982766	-82.2307	-31.6374	-9.328	-83.0633	-44.7954	26.5252	-104.484	5.76413	8.01281	-103.721	-18.4507	-9.21434	-95.7337	-38.3911	19.9556	-122.711	4.24966	25.5033	-125.74	-11.3544	1.25215	-113.304	-39.2749	9.95152	-97.3168	13.2692	68.6258	-96.4785	4.57358	94.0937	-65.2416	7.32515	77.242	
63	0.525	-42.5579	-22.6964	77.8979	-28.5764	-30.0316	48.2511	-31.6704	-35.19	19.4444	-52.4813	-38.7345	0.386786	-60.7908	0.417927	7.22234	-60.7398	-31.5759	-0.698154	-59.2085	-36.651	32.78	-82.4296	0.0890161	2.46121	-79.1051	-30.1561	-4.10284	-74.1684	-37.7039	35.5796	-100.983	1.04668	12.364	-97.5663	-28.93	2.25901	-91.2493	-34.8034	34.0797	-117.417	-1.77133	24.5117	-116.592	-26.6638	8.05055	-99.8487	-39.7119	31.7544	-97.1441	13.0553	68.4975	-102.393	4.07739	98.5615	-65.004	10.4158	78.486	
64	0.533333	-46.0379	-18.661	78.9119	-29.4072	-28.4562	51.3396	-33.3529	-31.5636	15.4851	-56.6448	-36.2846	4.44127	-61.4075	1.47072	9.18759	-56.8158	-30.5903	7.051	-54.3053	-30.3499	37.7727	-78.7205	-1.27232	6.60262	-74.5562	-34.9408	7.40873	-72.8916	-33.1231	46.6467	-100.708	-8.55057	12.8733	-92.3937	-37.7212	14.7703	-84.4305	-32.3169	47.903	-112.503	-12.735	23.2936	-103.935	-39.8942	21.6066	-98.7809	-41.2189	51.7995	-102.982	12.421	69.3827	-103.709	0.257893	98.1895	-68.6872	8.99514	81.95	
65	0.541667	-45.9002	-16.436	82.4129	-31.0012	-21.2386	49.9065	-31.9649	-27.9634	23.9212	-54.2154	-31.4849	5.42214	-58.0897	7.79014	17.0445	-53.8325	-26.1145	11.5948	-55.7902	-24.8107	45.9883	-75.6366	-1.77286	10.8973	-71.0742	-34.5472	13.8309	-72.4913	-33.2627	50.4909	-91.6524	-12.0714	17.8377	-83.8127	-40.4071	26.0194	-82.9573	-32.6616	57.7122	-106.348	-20.1656	24.8697	-98.6277	-44.444	33.7265	-90.5072	-36.7227	62.4257	-104.86	9.70776	71.9694	-109.131	1.02274	98.034	-74.5916	11.1831	87.003	
66	0.55	-43.5307	-13.4054	85.1453	-26.3173	-17.4855	56.3177	-27.3821	-20.5428	24.6557	-46.6058	-25.9812	3.24575	-54.8165	13.4468	20.123	-48.3224	-18.8547	9.69531	-52.0286	-23.2907	43.7914	-75.5645	2.47301	11.5289	-63.8807	-26.8934	9.0034	-69.1398	-29.5828	51.393	-90.7751	-9.67282	18.7981	-83.6181	-39.029	24.3721	-78.7892	-35.7827	55.9347	-107.696	-16.3525	27.1027	-92.9123	-40.1336	33.839	-93.5546	-38.0903	64.3527	-104.188	12.694	73.3916	-108.196	-0.127651	98.2766	-73.8308	13.6841	89.8974	
67	0.558333	-41.7033	-9.96824	86.2301	-25.0808	-14.8634	59.1302	-19.7901	-16.5065	26.5438	-39.344	-21.3165	5.01129	-56.8526	17.7041	18.5771	-47.4109	-9.51178	2.23342	-48.948	-26.6053	31.5356	-76.7835	10.3766	11.0249	-67.7256	-19.9443	1.45917	-69.4544	-32.3148	37.2892	-92.0592	-2.64476	15.9289	-82.8545	-33.4221	16.3838	-77.6831	-36.1638	47.4822	-106.526	-15.5581	22.5012	-93.6196	-39.2912	29.0061	-88.8893	-35.4923	59.0576	-104.819	15.7171	72.433	-105.946	2.52139	96.9015	-72.8671	15.1854	88.153	
68	0.566667	-41.9593	-10.3784	87.263	-22.4467	-14.4553	61.4213	-17.2445	-16.7527	33.9098	-24.5948	-23.1167	6.17027	-56.3632	18.6195	13.5508	-49.4864	-7.43807	-7.84261	-51.8483	-31.3155	11.457	-79.9673	16.4522	7.11875	-73.8674	-8.71258	-11.8538	-67.4069	-36.1158	15.4433	-94.8222	3.24373	13.634	-88.6798	-26.1446	0.931715	-82.8641	-43.8399	27.0663	-114.265	-12.269	20.2659	-98.2391	-35.9866	15.6193	-86.5432	-42.0684	41.4708	-103.719	15.6661	67.4059	-109.197	5.232	96.8722	-74.1899	14.4804	83.826	
69	0.575	-45.5468	-12.6455	87.6578	-23.194	-16.4417	61.9374	-10.7682	-20.7589	35.9458	-12.0194	-29.2366	11.7137	-52.3047	15.5156	11.4779	-49.4697	-5.02361	-15.1334	-50.494	-34.3616	-10.3972	-80.8131	15.579	2.68689	-77.5545	-2.79741	-20.7926	-70.7556	-41.797	-9.73442	-100.63	3.28735	10.6517	-98.3052	-17.808	-10.6629	-85.9501	-46.4006	1.95396	-118.738	-8.72443	19.148	-108.628	-30.1353	3.86605	-95.7996	-50.4334	18.7847	-104.607	13.7211	69.2173	-108.58	4.34516	98.2636	-72.7623	12.6978	82.1615	
70	0.583333	-40.9636	-14.6703	87.2425	-24.2088	-21.0026	64.9812	-5.88036	-27.5775	40.2091	-1.91189	-35.219	16.4043	-48.2418	8.81622	9.17902	-41.4623	-2.7898	-16.8084	-46.5537	-35.5861	-29.9362	-74.7076	11.5467	3.23678	-75.8895	-1.87138	-25.5276	-69.5234	-37.5117	-35.8122	-100.237	3.89434	9.90566	-97.8399	-14.3484	-18.7562	-93.4223	-47.1476	-21.315	-121.546	-6.97205	19.1752	-123.311	-23.7663	-0.190414	-105.21	-49.8411	-2.29181	-102.043	12.7272	63.0663	-100.748	6.58534	94.0599	-69.0945	10.4728	79.1406	
71	0.591667	-40.1713	-14.5726	81.7365	-20.2578	-24.2342	67.597	-5.45264	-31.3531	41.8497	6.557	-41.2015	21.6663	-51.774	2.75932	4.76363	-42.2574	-8.21885	-22.4619	-42.1329	-29.9902	-42.4466	-75.5518	8.77653	0.0910839	-72.9043	-1.883	-29.346	-73.0561	-30.5454	-54.6119	-98.1339	1.36597	4.32192	-102.03	-7.17354	-18.8768	-102.981	-35.5119	-40.6325	-121.349	-7.32756	23.1682	-126.553	-18.5991	-2.53837	-122.384	-41.5626	-19.6257	-99.4086	12.2038	57.7703	-101.162	10.3081	88.8152	-64.2198	10.4757	73.0096	
